<svg xmlns="http://www.w3.org/2000/svg" xmlns:xlink="http://www.w3.org/1999/xlink" width="200" zoomAndPan="magnify" viewBox="0 0 150 74.999997" height="100" preserveAspectRatio="xMidYMid meet" version="1.0"><defs><g/></defs><path stroke-linecap="butt" transform="matrix(0.872759, -0.0791503, 0.0791503, 0.872759, -0.421966, 11.782263)" fill="none" stroke-linejoin="miter" d="M 65.568235 32.392396 C 65.818759 31.998871 66.103644 31.868056 66.424095 31.986633 C 66.748584 32.110051 67.045653 32.338401 67.323778 32.676926 C 67.610783 33.016257 67.829991 33.362866 67.97656 33.720791 C 67.620342 34.292712 67.191539 35.122119 66.686116 36.204171 C 66.189973 37.282588 65.597396 38.437299 64.903946 39.667901 C 64.206459 40.893662 63.397578 42.064562 62.468022 43.184237 C 61.547344 44.304717 60.5108 45.222232 59.354355 45.93194 C 58.202348 46.642051 56.894491 46.997871 55.435222 46.999803 C 53.483612 47.001842 51.99796 46.30764 50.985938 44.931321 C 49.970685 43.541281 49.462997 41.637804 49.458838 39.216047 C 49.458909 37.685348 49.647854 36.194157 50.022039 34.733192 C 50.395821 33.276666 50.828542 31.910525 51.324642 30.63517 C 51.825987 29.35134 52.263604 28.227333 52.636285 27.276467 C 53.010175 26.312284 53.19928 25.559605 53.19876 25.022468 C 53.198186 24.23916 52.857497 23.850204 52.181536 23.851561 C 51.720672 23.850047 51.261471 24.076947 50.799898 24.52742 C 50.343569 24.969416 49.841312 25.769783 49.302408 26.924886 C 48.777225 28.076757 48.172243 29.713724 47.496742 31.832152 C 46.817608 33.941299 46.053865 36.68728 45.20511 40.074535 C 44.742226 41.921322 44.074998 43.109545 43.198987 43.638801 C 42.331854 44.168863 41.448521 44.433386 40.553427 44.432774 C 38.888343 44.433943 37.768002 44.15331 37.197247 43.586837 C 36.631333 43.016328 36.349466 42.17618 36.350841 41.07527 C 36.351029 40.086147 36.512619 38.995292 36.830768 37.806742 C 37.154162 36.609716 37.509425 35.357395 37.901399 34.045743 C 38.289739 32.72481 38.642565 31.400656 38.955438 30.072879 C 39.273555 28.736626 39.433492 27.466591 39.43565 26.258335 C 39.435425 25.224417 39.309366 24.541623 39.058278 24.201074 C 38.816069 23.86133 38.513364 23.695129 38.159846 23.694399 C 37.376538 23.694973 36.879461 24.191459 36.663372 25.192332 C 35.492688 30.944916 33.862514 35.595077 31.778095 39.134339 C 29.707396 42.67037 27.32615 45.23833 24.642832 46.843465 C 21.964759 48.440123 19.108542 49.23737 16.078218 49.240047 C 14.01926 49.241302 12.304846 48.799374 10.934169 47.923143 C 9.562687 47.055789 8.545474 45.934117 7.874055 44.55288 C 7.199002 43.162363 6.858089 41.739488 6.860596 40.280622 C 6.858664 38.821353 7.154977 37.429414 7.745096 36.104401 C 8.327544 34.765266 9.150971 33.680724 10.220221 32.846738 C 11.285837 32.003472 12.532339 31.583903 13.955692 31.58319 C 14.483548 31.586303 14.75075 31.798517 14.748017 32.223465 C 14.748677 33.400647 15.266247 34.356162 16.301131 35.085571 C 17.331576 35.814578 18.614166 36.181538 20.140426 36.181206 C 21.63077 36.182092 23.033461 35.81697 24.344062 35.085436 C 25.663138 34.359146 26.859483 33.40689 27.927853 32.237144 C 28.992991 31.053677 29.916052 29.758859 30.697841 28.343811 C 31.480436 26.919885 32.074972 25.496807 32.481853 24.070137 C 32.89277 22.64831 33.093868 21.36858 33.094024 20.231755 C 33.093311 18.808402 32.766595 17.722496 32.104596 16.97767 C 31.44744 16.228808 30.545808 15.856116 29.408982 15.855959 C 28.133332 15.85664 26.998224 16.331069 25.999621 17.274404 C 25.010299 18.214104 24.51582 19.520936 24.516184 21.194898 C 24.513559 22.112188 24.769182 22.896248 25.283859 23.538198 C 25.794903 24.170868 26.441877 24.489135 27.220746 24.488158 C 27.545362 25.202387 27.493895 26.066014 27.066343 27.07904 C 26.642827 28.096908 25.904507 28.983284 24.855017 29.74745 C 23.801087 30.511213 22.477496 30.89246 20.883843 30.895632 C 18.780493 30.892861 17.036952 30.130514 15.649184 28.603749 C 14.266258 27.072947 13.580174 25.063776 13.577615 22.575029 C 13.577578 20.551988 13.985157 18.624098 14.800351 16.791359 C 15.619581 14.963462 16.796812 13.333635 18.344555 11.911964 C 19.89714 10.486255 21.753267 9.365572 23.917376 8.550316 C 26.085925 7.735462 28.508401 7.328551 31.180365 7.32918 C 35.835417 7.32615 39.43101 8.641373 41.976425 11.271217 C 44.516998 13.905097 46.018199 17.438332 46.47882 21.884241 C 47.362616 20.035345 48.42076 18.238067 49.643972 16.496041 C 50.876464 14.75038 52.21231 13.197598 53.651912 11.833255 C 55.092319 10.460034 56.578792 9.368487 58.107296 8.553773 C 59.636203 7.734619 61.145426 7.329925 62.636172 7.326372 C 64.704008 7.325922 66.162187 7.878884 67.011111 8.980819 C 67.864474 10.083156 68.285664 11.361136 68.288401 12.811526 C 68.285808 13.876519 68.091925 14.928639 67.703118 15.958606 C 67.30947 16.99261 66.81126 17.847053 66.203648 18.525971 C 65.605317 19.201256 64.98391 19.538766 64.343865 19.538905 C 63.954431 19.539394 63.613807 19.445842 63.326835 19.254214 C 63.049546 19.054513 62.731924 18.954096 62.378406 18.953365 C 61.83683 18.953483 61.337697 19.275228 60.881009 19.918601 C 60.420686 20.552692 60.010445 21.374831 59.654323 22.389859 C 59.298604 23.400448 58.995361 24.473981 58.74379 25.619336 C 58.501902 26.756618 58.304798 27.844252 58.157321 28.878202 C 58.019929 29.89964 57.948681 30.734619 57.94882 31.374664 C 57.951482 32.480415 58.188162 33.37465 58.666531 34.071492 C 59.145303 34.763895 59.990835 35.113597 61.203933 35.111718 C 62.904531 35.11377 64.360778 34.207463 65.568235 32.392396 Z M 77.675496 47.638237 C 75.540669 47.637087 73.60834 47.229106 71.882948 46.414696 C 70.162398 45.596249 68.804561 44.381025 67.809438 42.769023 C 66.819961 41.144107 66.32557 39.143369 66.321824 36.766407 C 66.321267 34.206229 66.81675 31.950631 67.808676 29.995172 C 68.805444 28.035676 70.070654 26.422779 71.594623 25.164554 C 73.123836 23.897853 74.650719 23.051662 76.179711 22.626381 C 76.432323 22.5553 76.598164 22.453971 76.686917 22.31432 C 76.772035 22.165388 76.730026 21.987024 76.556451 21.778825 C 75.522657 20.494522 75.006133 18.787177 75.007283 16.652349 C 75.008116 14.915835 75.379048 13.342681 76.128555 11.938133 C 76.874025 10.528743 78.000518 9.409025 79.512473 8.579383 C 81.024831 7.745301 82.920256 7.326398 85.202786 7.327515 C 87.547868 7.32983 89.400693 7.726125 90.760457 8.52528 C 92.133539 9.325642 93.110374 10.349662 93.690964 11.59734 C 94.280834 12.841384 94.578531 14.099213 94.574772 15.37446 C 94.575222 17.442296 93.982393 19.290725 92.791845 20.919345 C 91.605333 22.552806 90.015189 23.849787 88.02545 24.815129 C 87.844671 24.883774 87.709502 24.99236 87.624383 25.141292 C 87.536033 25.276504 87.545749 25.416133 87.649494 25.555338 C 88.467322 26.555986 89.173005 27.756824 89.770578 29.162694 C 90.381469 30.569771 90.685322 32.302587 90.682541 34.356703 C 90.683098 36.916881 90.121842 39.206797 89.004017 41.217974 C 87.886596 43.224712 86.347763 44.794892 84.395996 45.933756 C 82.440193 47.067779 80.204197 47.639301 77.675496 47.638237 Z M 84.132901 21.937794 C 85.238652 21.935132 86.085656 21.627032 86.687631 21.010263 C 87.294852 20.385018 87.596929 19.521739 87.598304 18.42083 C 87.598079 17.386912 87.312992 16.582278 86.739407 15.997646 C 86.175104 15.409379 85.373975 15.112938 84.344496 15.113565 C 83.274661 15.115009 82.44622 15.41584 81.858367 16.024939 C 81.275759 16.625561 80.983767 17.476327 80.982392 18.577236 C 80.985301 20.815374 82.033991 21.935425 84.132901 21.937794 Z M 79.436645 34.733249 C 80.752248 34.736191 81.803837 34.343703 82.586168 33.56426 C 83.368902 32.780379 83.759319 31.732655 83.758225 30.41221 C 83.757162 29.239468 83.399404 28.298446 82.689793 27.585108 C 81.979778 26.87621 81.036583 26.517651 79.863841 26.518713 C 78.543396 26.519808 77.487367 26.911893 76.687279 27.689725 C 75.886788 28.471997 75.491529 29.523757 75.488185 30.843799 C 75.489649 32.012102 75.847005 32.957563 76.557019 33.666462 C 77.266631 34.3798 78.227986 34.73553 79.436645 34.733249 Z M 101.459508 46.997861 C 99.324278 47.00115 97.572729 46.524525 96.20042 45.567581 C 94.837795 44.602565 93.824989 43.333592 93.167248 41.752188 C 92.50547 40.165941 92.185067 38.418197 92.205235 36.517833 C 92.220964 34.617067 92.549855 32.717847 93.19231 30.815734 C 93.834766 28.913621 94.757731 27.175695 95.966449 25.593481 C 97.171131 24.006425 98.638195 22.734088 100.367237 21.780909 C 102.092646 20.818449 104.043345 20.332947 106.213686 20.337317 C 107.87877 20.336148 109.238024 20.6474 110.287009 21.27067 C 111.336397 21.889501 112.112217 22.711786 112.604783 23.745597 C 113.10179 24.77981 113.346586 25.880666 113.347648 27.053408 C 113.347524 28.337936 112.989845 29.616892 112.278649 30.895118 C 111.576734 32.16971 110.580981 33.229673 109.296232 34.070969 C 108.021167 34.904192 106.510737 35.322204 104.765344 35.320566 C 104.022392 35.320324 103.293149 35.267617 102.582056 35.162846 C 101.866925 35.053234 101.212302 34.819312 100.613746 34.460678 C 100.430508 34.359021 100.233974 34.354625 100.015265 34.446684 C 99.805837 34.535109 99.700557 34.7583 99.704266 35.11222 C 99.701238 36.03395 100.246195 36.736831 101.33026 37.220059 C 102.414727 37.698847 103.72231 37.938277 105.24857 37.937945 C 107.061357 37.936743 108.938209 37.475874 110.874286 36.559374 C 112.81157 35.629556 114.378691 34.240972 115.589369 32.390391 C 115.874189 31.964171 116.245834 31.814369 116.704707 31.936548 C 117.1773 32.055495 117.558312 32.295933 117.852585 32.653826 C 118.156138 33.008085 118.204642 33.361592 117.997694 33.718787 C 115.643469 38.061593 113.070691 41.359633 110.274518 43.616944 C 107.487627 45.87062 104.551981 47.00082 101.459508 46.997861 Z M 103.386724 31.324018 C 104.411764 31.322988 105.215985 30.993105 105.794949 30.333968 C 106.38723 29.676038 106.680875 29.004452 106.679517 28.328491 C 106.680194 27.728802 106.475882 27.217941 106.071423 26.79187 C 105.662928 26.360958 105.051891 26.139941 104.232667 26.141733 C 103.198749 26.141958 102.382015 26.461755 101.773185 27.104757 C 101.173232 27.748564 100.874746 28.424186 100.872883 29.135661 C 100.875427 29.699836 101.079739 30.210697 101.486624 30.659366 C 101.893912 31.103596 102.527547 31.322187 103.386724 31.324018 Z M 120.015957 46.997859 C 118.20317 46.99906 116.829696 46.252372 115.904414 44.758598 C 114.983169 43.269666 114.523497 41.330261 114.52419 38.953702 C 114.521443 37.454078 114.710769 35.859979 115.082887 34.175039 C 115.45581 32.481221 116.004693 30.821263 116.734779 29.186691 C 117.464463 27.556557 118.382237 26.073278 119.483662 24.736451 C 120.585087 23.399624 121.863732 22.329511 123.323635 21.530954 C 124.783538 20.732397 126.435218 20.336146 128.283921 20.333726 C 129.353353 20.336722 130.177038 20.4338 130.75861 20.634243 C 131.349866 20.826612 131.793833 21.063808 132.098986 21.351075 C 132.404139 21.638343 132.659644 21.880826 132.865502 22.078525 C 133.085483 22.268554 133.372031 22.366153 133.725549 22.366883 C 134.325238 22.36756 134.810682 22.196749 135.185919 21.859292 C 135.556716 21.521432 135.976747 21.183562 136.432695 20.844473 C 136.902363 20.502153 137.543986 20.336554 138.36321 20.334762 C 139.074685 20.336625 139.564644 20.510856 139.831878 20.870772 C 140.103954 21.226652 140.234812 21.708473 140.238172 22.313003 C 140.237984 23.302126 139.96055 24.288485 139.401834 25.267237 C 138.856033 26.251636 138.279624 27.524183 137.672607 29.084877 C 136.78843 31.036681 136.456222 32.528307 136.680019 33.564598 C 136.917537 34.597657 137.618227 35.113253 138.79097 35.112191 C 139.713101 35.11078 140.508868 34.874121 141.187551 34.398581 C 141.863002 33.90932 142.473846 33.244122 143.012008 32.393303 C 143.28795 31.966277 143.646277 31.815268 144.091833 31.936239 C 144.541827 32.057613 144.913961 32.297246 145.208636 32.650699 C 145.516226 33.0098 145.578048 33.364515 145.407016 33.720491 C 144.761995 34.959961 144.077455 36.339071 143.348556 37.861857 C 142.620864 39.371326 141.809218 40.819472 140.913216 42.210735 C 140.027301 43.589485 139.019459 44.733391 137.880411 45.646085 C 136.742168 46.549901 135.430295 46.999348 133.935513 46.998059 C 132.08681 47.000479 130.780327 46.25539 130.016468 44.758352 C 129.252206 43.265754 129.03025 41.41952 129.351004 39.215211 L 129.145188 39.214449 C 128.075825 41.382197 126.758606 43.223116 125.184651 44.736401 C 123.624417 46.246454 121.900174 46.99866 120.015957 46.997859 Z M 125.354254 35.956938 C 126.275983 35.959966 127.083447 35.693038 127.775839 35.165032 C 128.469036 34.628148 129.011681 33.974668 129.402968 33.213471 C 129.794657 32.447834 129.988604 31.691119 129.988846 30.948167 C 129.988653 30.061951 129.737893 29.372324 129.236968 28.874844 C 128.740885 28.373329 128.065676 28.119637 127.215377 28.118611 C 126.297684 28.120425 125.495868 28.374438 124.819209 28.877016 C 124.143355 29.370716 123.620883 29.999171 123.247353 30.761979 C 122.873421 31.529226 122.687144 32.300064 122.687718 33.083372 C 122.683874 33.964745 122.924146 34.671325 123.400861 35.188987 C 123.886858 35.703015 124.539469 35.959133 125.354254 35.956938 Z M 147.16579 46.998409 C 145.169384 47.000861 143.698682 46.388579 142.753281 45.166001 C 141.817966 43.93091 141.345454 42.330498 141.345026 40.36113 C 141.345 38.387323 141.738815 36.265728 142.517996 33.9911 C 142.985426 32.637058 143.502472 31.180098 144.069133 29.620219 C 144.641441 28.047425 145.262146 26.335797 145.930845 24.489773 C 145.147537 24.490347 144.55305 24.284257 144.146981 23.875944 C 143.736472 23.467228 143.470827 22.991086 143.33713 22.441872 C 143.217152 21.889425 143.21624 21.405962 143.338027 21.000762 C 143.469094 20.591929 143.693429 20.388486 144.015872 20.386398 C 145.578048 20.384848 146.80316 19.954387 147.687572 19.085736 C 148.581668 18.209011 149.206178 17.294411 149.561506 16.337495 C 150.204439 14.775582 150.826512 13.789148 151.422884 13.382231 C 152.033378 12.967643 152.674588 12.75725 153.350549 12.755892 C 154.34855 12.756885 154.968105 13.180084 155.214056 14.021451 C 155.465251 14.854342 155.181821 16.104226 154.368205 17.771505 C 153.97694 18.631171 153.76158 19.278526 153.716882 19.722047 C 153.681061 20.166373 153.915981 20.389087 154.417604 20.385346 L 157.192476 20.386356 C 157.545994 20.387086 157.778095 20.640874 157.880305 21.142476 C 157.987759 21.635602 157.97618 22.207447 157.855252 22.849939 C 157.735129 23.483553 157.50482 24.048989 157.167959 24.555529 C 156.827866 25.048349 156.389251 25.295019 155.852114 25.295539 C 154.218507 25.295087 153.013091 25.360323 152.231425 25.490842 C 151.450565 25.612483 150.898967 25.920519 150.576631 26.414949 C 150.258734 26.909781 149.917106 27.764997 149.560625 28.981401 C 148.990394 30.827404 149.066585 32.306835 149.794844 33.406778 C 150.527946 34.502685 151.678207 35.045625 153.248859 35.049319 C 154.314255 35.047473 155.267005 34.807148 156.09783 34.331978 C 156.933496 33.852772 157.61416 33.207333 158.144662 32.391625 C 158.429482 31.965405 158.792249 31.814798 159.237804 31.935769 C 159.687799 32.057142 160.059932 32.296775 160.354607 32.650229 C 160.657758 33.008927 160.724019 33.364044 160.552988 33.72002 C 160.229465 34.326236 159.799857 35.164522 159.264566 36.230438 C 158.734117 37.292317 158.096746 38.447441 157.348012 39.695408 C 156.60412 40.939339 155.728247 42.10864 154.732908 43.213397 C 153.74241 44.314118 152.613045 45.218739 151.344411 45.931701 C 150.089094 46.645869 148.696489 46.998479 147.16579 46.998409 Z M 147.16579 46.998409 " stroke="#d26767" stroke-width="3.999998" stroke-opacity="1" stroke-miterlimit="4"/><g fill="#ecb0b6" fill-opacity="1"><g transform="translate(11.330211, 52.073519)"><g><path d="M 48.03125 -17.21875 C 48.21875 -17.570312 48.457031 -17.707031 48.75 -17.625 C 49.039062 -17.539062 49.320312 -17.363281 49.59375 -17.09375 C 49.875 -16.832031 50.09375 -16.550781 50.25 -16.25 C 49.976562 -15.71875 49.664062 -14.957031 49.3125 -13.96875 C 48.96875 -12.976562 48.539062 -11.921875 48.03125 -10.796875 C 47.519531 -9.679688 46.90625 -8.597656 46.1875 -7.546875 C 45.46875 -6.503906 44.632812 -5.625 43.6875 -4.90625 C 42.738281 -4.1875 41.625 -3.769531 40.34375 -3.65625 C 38.644531 -3.5 37.296875 -3.984375 36.296875 -5.109375 C 35.304688 -6.242188 34.71875 -7.867188 34.53125 -9.984375 C 34.40625 -11.316406 34.445312 -12.632812 34.65625 -13.9375 C 34.875 -15.25 35.144531 -16.476562 35.46875 -17.625 C 35.800781 -18.78125 36.09375 -19.789062 36.34375 -20.65625 C 36.601562 -21.519531 36.710938 -22.1875 36.671875 -22.65625 C 36.609375 -23.34375 36.28125 -23.660156 35.6875 -23.609375 C 35.28125 -23.566406 34.894531 -23.332031 34.53125 -22.90625 C 34.164062 -22.476562 33.789062 -21.738281 33.40625 -20.6875 C 33.03125 -19.644531 32.628906 -18.171875 32.203125 -16.265625 C 31.785156 -14.367188 31.34375 -11.910156 30.875 -8.890625 C 30.613281 -7.242188 30.125 -6.15625 29.40625 -5.625 C 28.6875 -5.09375 27.941406 -4.789062 27.171875 -4.71875 C 25.703125 -4.582031 24.695312 -4.738281 24.15625 -5.1875 C 23.613281 -5.632812 23.300781 -6.34375 23.21875 -7.3125 C 23.132812 -8.175781 23.1875 -9.140625 23.375 -10.203125 C 23.5625 -11.265625 23.769531 -12.382812 24 -13.5625 C 24.238281 -14.75 24.445312 -15.9375 24.625 -17.125 C 24.800781 -18.320312 24.84375 -19.441406 24.75 -20.484375 C 24.664062 -21.390625 24.5 -21.976562 24.25 -22.25 C 24.007812 -22.53125 23.734375 -22.660156 23.421875 -22.640625 C 22.742188 -22.578125 22.351562 -22.097656 22.25 -21.203125 C 21.675781 -16.085938 20.625 -11.90625 19.09375 -8.65625 C 17.5625 -5.40625 15.679688 -2.972656 13.453125 -1.359375 C 11.234375 0.242188 8.804688 1.164062 6.171875 1.40625 C 4.367188 1.570312 2.835938 1.328125 1.578125 0.671875 C 0.316406 0.0234375 -0.660156 -0.875 -1.359375 -2.03125 C -2.054688 -3.1875 -2.460938 -4.398438 -2.578125 -5.671875 C -2.691406 -6.941406 -2.546875 -8.179688 -2.140625 -9.390625 C -1.734375 -10.609375 -1.097656 -11.617188 -0.234375 -12.421875 C 0.628906 -13.234375 1.679688 -13.695312 2.921875 -13.8125 C 3.390625 -13.851562 3.640625 -13.695312 3.671875 -13.34375 C 3.765625 -12.3125 4.289062 -11.519531 5.25 -10.96875 C 6.207031 -10.414062 7.347656 -10.195312 8.671875 -10.3125 C 9.984375 -10.4375 11.179688 -10.867188 12.265625 -11.609375 C 13.359375 -12.347656 14.320312 -13.269531 15.15625 -14.375 C 16 -15.476562 16.707031 -16.679688 17.28125 -17.984375 C 17.851562 -19.285156 18.257812 -20.570312 18.5 -21.84375 C 18.75 -23.125 18.828125 -24.257812 18.734375 -25.25 C 18.628906 -26.488281 18.253906 -27.410156 17.609375 -28.015625 C 16.972656 -28.617188 16.160156 -28.875 15.171875 -28.78125 C 14.054688 -28.6875 13.097656 -28.1875 12.296875 -27.28125 C 11.503906 -26.375 11.171875 -25.191406 11.296875 -23.734375 C 11.367188 -22.921875 11.65625 -22.253906 12.15625 -21.734375 C 12.664062 -21.222656 13.265625 -21 13.953125 -21.0625 C 14.285156 -20.46875 14.304688 -19.710938 14.015625 -18.796875 C 13.722656 -17.878906 13.148438 -17.039062 12.296875 -16.28125 C 11.441406 -15.53125 10.3125 -15.09375 8.90625 -14.96875 C 7.082031 -14.800781 5.503906 -15.332031 4.171875 -16.5625 C 2.835938 -17.789062 2.070312 -19.488281 1.875 -21.65625 C 1.71875 -23.425781 1.921875 -25.140625 2.484375 -26.796875 C 3.054688 -28.460938 3.957031 -29.976562 5.1875 -31.34375 C 6.425781 -32.707031 7.960938 -33.832031 9.796875 -34.71875 C 11.628906 -35.601562 13.707031 -36.148438 16.03125 -36.359375 C 20.09375 -36.734375 23.335938 -35.875 25.765625 -33.78125 C 28.203125 -31.6875 29.796875 -28.71875 30.546875 -24.875 C 31.171875 -26.5625 31.945312 -28.207031 32.875 -29.8125 C 33.8125 -31.425781 34.851562 -32.890625 36 -34.203125 C 37.144531 -35.515625 38.351562 -36.585938 39.625 -37.421875 C 40.894531 -38.253906 42.1875 -38.734375 43.5 -38.859375 C 45.289062 -39.015625 46.601562 -38.644531 47.4375 -37.75 C 48.269531 -36.863281 48.742188 -35.78125 48.859375 -34.5 C 48.941406 -33.570312 48.851562 -32.640625 48.59375 -31.703125 C 48.34375 -30.773438 47.976562 -29.992188 47.5 -29.359375 C 47.03125 -28.722656 46.515625 -28.378906 45.953125 -28.328125 C 45.609375 -28.296875 45.304688 -28.351562 45.046875 -28.5 C 44.785156 -28.65625 44.5 -28.71875 44.1875 -28.6875 C 43.71875 -28.644531 43.304688 -28.328125 42.953125 -27.734375 C 42.597656 -27.140625 42.304688 -26.382812 42.078125 -25.46875 C 41.859375 -24.5625 41.679688 -23.597656 41.546875 -22.578125 C 41.421875 -21.566406 41.335938 -20.601562 41.296875 -19.6875 C 41.253906 -18.78125 41.257812 -18.046875 41.3125 -17.484375 C 41.394531 -16.535156 41.671875 -15.773438 42.140625 -15.203125 C 42.617188 -14.628906 43.382812 -14.390625 44.4375 -14.484375 C 45.925781 -14.617188 47.125 -15.53125 48.03125 -17.21875 Z M 48.03125 -17.21875 "/></g></g></g><g fill="#ecb0b6" fill-opacity="1"><g transform="translate(59.455196, 47.709077)"><g><path d="M 11.6875 -0.5 C 9.820312 -0.320312 8.101562 -0.523438 6.53125 -1.109375 C 4.96875 -1.691406 3.6875 -2.644531 2.6875 -3.96875 C 1.695312 -5.300781 1.109375 -7.007812 0.921875 -9.09375 C 0.722656 -11.332031 0.976562 -13.34375 1.6875 -15.125 C 2.394531 -16.90625 3.363281 -18.40625 4.59375 -19.625 C 5.832031 -20.851562 7.101562 -21.710938 8.40625 -22.203125 C 8.613281 -22.285156 8.75 -22.390625 8.8125 -22.515625 C 8.882812 -22.648438 8.832031 -22.804688 8.65625 -22.984375 C 7.664062 -24.015625 7.082031 -25.460938 6.90625 -27.328125 C 6.769531 -28.835938 6.972656 -30.234375 7.515625 -31.515625 C 8.054688 -32.804688 8.953125 -33.875 10.203125 -34.71875 C 11.453125 -35.570312 13.066406 -36.09375 15.046875 -36.28125 C 17.097656 -36.457031 18.75 -36.25 20 -35.65625 C 21.257812 -35.070312 22.195312 -34.257812 22.8125 -33.21875 C 23.425781 -32.175781 23.785156 -31.101562 23.890625 -30 C 24.046875 -28.1875 23.664062 -26.519531 22.75 -25 C 21.84375 -23.488281 20.566406 -22.234375 18.921875 -21.234375 C 18.765625 -21.160156 18.648438 -21.054688 18.578125 -20.921875 C 18.515625 -20.785156 18.535156 -20.660156 18.640625 -20.546875 C 19.429688 -19.742188 20.144531 -18.75 20.78125 -17.5625 C 21.425781 -16.382812 21.832031 -14.898438 22 -13.109375 C 22.195312 -10.878906 21.882812 -8.84375 21.0625 -7 C 20.25 -5.15625 19.03125 -3.660156 17.40625 -2.515625 C 15.789062 -1.367188 13.882812 -0.695312 11.6875 -0.5 Z M 15.28125 -23.4375 C 16.238281 -23.53125 16.957031 -23.867188 17.4375 -24.453125 C 17.925781 -25.046875 18.125 -25.820312 18.03125 -26.78125 C 17.945312 -27.6875 17.628906 -28.375 17.078125 -28.84375 C 16.535156 -29.3125 15.816406 -29.503906 14.921875 -29.421875 C 13.992188 -29.335938 13.296875 -29.003906 12.828125 -28.421875 C 12.367188 -27.847656 12.179688 -27.078125 12.265625 -26.109375 C 12.441406 -24.160156 13.445312 -23.269531 15.28125 -23.4375 Z M 12.203125 -11.890625 C 13.347656 -11.992188 14.234375 -12.421875 14.859375 -13.171875 C 15.484375 -13.921875 15.742188 -14.863281 15.640625 -16 C 15.546875 -17.03125 15.15625 -17.828125 14.46875 -18.390625 C 13.789062 -18.960938 12.9375 -19.203125 11.90625 -19.109375 C 10.769531 -19.003906 9.878906 -18.578125 9.234375 -17.828125 C 8.597656 -17.078125 8.332031 -16.125 8.4375 -14.96875 C 8.53125 -13.957031 8.914062 -13.164062 9.59375 -12.59375 C 10.28125 -12.03125 11.148438 -11.796875 12.203125 -11.890625 Z M 12.203125 -11.890625 "/></g></g></g><g fill="#ecb0b6" fill-opacity="1"><g transform="translate(83.098801, 45.564845)"><g><path d="M 8.75 -0.796875 C 6.882812 -0.628906 5.316406 -0.910156 4.046875 -1.640625 C 2.773438 -2.367188 1.789062 -3.394531 1.09375 -4.71875 C 0.394531 -6.050781 -0.0195312 -7.546875 -0.15625 -9.203125 C -0.289062 -10.867188 -0.15625 -12.554688 0.25 -14.265625 C 0.664062 -15.984375 1.335938 -17.578125 2.265625 -19.046875 C 3.203125 -20.523438 4.378906 -21.75 5.796875 -22.71875 C 7.222656 -23.6875 8.890625 -24.257812 10.796875 -24.4375 C 12.242188 -24.570312 13.445312 -24.410156 14.40625 -23.953125 C 15.375 -23.492188 16.113281 -22.832031 16.625 -21.96875 C 17.144531 -21.101562 17.453125 -20.160156 17.546875 -19.140625 C 17.648438 -18.023438 17.441406 -16.878906 16.921875 -15.703125 C 16.398438 -14.535156 15.613281 -13.535156 14.5625 -12.703125 C 13.507812 -11.867188 12.226562 -11.382812 10.71875 -11.25 C 10.0625 -11.1875 9.414062 -11.171875 8.78125 -11.203125 C 8.15625 -11.242188 7.566406 -11.394531 7.015625 -11.65625 C 6.847656 -11.738281 6.675781 -11.734375 6.5 -11.640625 C 6.320312 -11.546875 6.25 -11.34375 6.28125 -11.03125 C 6.351562 -10.226562 6.878906 -9.65625 7.859375 -9.3125 C 8.835938 -8.976562 10 -8.875 11.34375 -9 C 12.914062 -9.144531 14.507812 -9.695312 16.125 -10.65625 C 17.75 -11.613281 19.015625 -12.953125 19.921875 -14.671875 C 20.140625 -15.066406 20.457031 -15.226562 20.875 -15.15625 C 21.289062 -15.082031 21.640625 -14.898438 21.921875 -14.609375 C 22.210938 -14.328125 22.285156 -14.023438 22.140625 -13.703125 C 20.429688 -9.722656 18.445312 -6.632812 16.1875 -4.4375 C 13.9375 -2.25 11.457031 -1.035156 8.75 -0.796875 Z M 9.1875 -14.625 C 10.09375 -14.695312 10.773438 -15.046875 11.234375 -15.671875 C 11.691406 -16.296875 11.890625 -16.90625 11.828125 -17.5 C 11.785156 -18.03125 11.566406 -18.460938 11.171875 -18.796875 C 10.785156 -19.128906 10.234375 -19.265625 9.515625 -19.203125 C 8.609375 -19.117188 7.914062 -18.773438 7.4375 -18.171875 C 6.96875 -17.578125 6.765625 -16.96875 6.828125 -16.34375 C 6.867188 -15.84375 7.085938 -15.410156 7.484375 -15.046875 C 7.878906 -14.691406 8.445312 -14.550781 9.1875 -14.625 Z M 9.1875 -14.625 "/></g></g></g><g fill="#ecb0b6" fill-opacity="1"><g transform="translate(103.112097, 43.749845)"><g><path d="M 4.9375 -0.453125 C 3.351562 -0.304688 2.097656 -0.847656 1.171875 -2.078125 C 0.242188 -3.304688 -0.3125 -4.960938 -0.5 -7.046875 C -0.613281 -8.347656 -0.570312 -9.75 -0.375 -11.25 C -0.1875 -12.75 0.15625 -14.242188 0.65625 -15.734375 C 1.15625 -17.222656 1.832031 -18.585938 2.6875 -19.828125 C 3.550781 -21.078125 4.585938 -22.109375 5.796875 -22.921875 C 7.003906 -23.734375 8.421875 -24.21875 10.046875 -24.375 C 10.960938 -24.457031 11.6875 -24.4375 12.21875 -24.3125 C 12.75 -24.195312 13.15625 -24.023438 13.4375 -23.796875 C 13.726562 -23.566406 13.972656 -23.375 14.171875 -23.21875 C 14.378906 -23.0625 14.640625 -23 14.953125 -23.03125 C 15.472656 -23.082031 15.878906 -23.269531 16.171875 -23.59375 C 16.472656 -23.914062 16.8125 -24.238281 17.1875 -24.5625 C 17.570312 -24.894531 18.117188 -25.097656 18.828125 -25.171875 C 19.453125 -25.222656 19.894531 -25.101562 20.15625 -24.8125 C 20.414062 -24.53125 20.570312 -24.125 20.625 -23.59375 C 20.695312 -22.726562 20.53125 -21.847656 20.125 -20.953125 C 19.71875 -20.054688 19.316406 -18.898438 18.921875 -17.484375 C 18.296875 -15.703125 18.125 -14.367188 18.40625 -13.484375 C 18.695312 -12.609375 19.351562 -12.21875 20.375 -12.3125 C 21.1875 -12.382812 21.863281 -12.65625 22.40625 -13.125 C 22.957031 -13.601562 23.429688 -14.238281 23.828125 -15.03125 C 24.046875 -15.414062 24.351562 -15.570312 24.75 -15.5 C 25.15625 -15.425781 25.503906 -15.25 25.796875 -14.96875 C 26.085938 -14.6875 26.171875 -14.378906 26.046875 -14.046875 C 25.578125 -12.898438 25.082031 -11.640625 24.5625 -10.265625 C 24.050781 -8.890625 23.460938 -7.5625 22.796875 -6.28125 C 22.128906 -5.007812 21.332031 -3.929688 20.40625 -3.046875 C 19.488281 -2.160156 18.382812 -1.660156 17.09375 -1.546875 C 15.46875 -1.398438 14.265625 -1.945312 13.484375 -3.1875 C 12.703125 -4.4375 12.363281 -6.035156 12.46875 -7.984375 L 12.296875 -7.96875 C 11.523438 -5.988281 10.515625 -4.273438 9.265625 -2.828125 C 8.023438 -1.390625 6.582031 -0.597656 4.9375 -0.453125 Z M 8.703125 -10.5 C 9.515625 -10.570312 10.203125 -10.867188 10.765625 -11.390625 C 11.335938 -11.910156 11.757812 -12.519531 12.03125 -13.21875 C 12.300781 -13.914062 12.410156 -14.585938 12.359375 -15.234375 C 12.285156 -16.015625 12.015625 -16.601562 11.546875 -17 C 11.078125 -17.40625 10.46875 -17.570312 9.71875 -17.5 C 8.90625 -17.425781 8.222656 -17.144531 7.671875 -16.65625 C 7.128906 -16.164062 6.726562 -15.570312 6.46875 -14.875 C 6.207031 -14.175781 6.101562 -13.488281 6.15625 -12.8125 C 6.226562 -12.03125 6.492188 -11.429688 6.953125 -11.015625 C 7.410156 -10.597656 7.992188 -10.425781 8.703125 -10.5 Z M 8.703125 -10.5 "/></g></g></g><g fill="#ecb0b6" fill-opacity="1"><g transform="translate(127.034965, 41.580286)"><g><path d="M 4.703125 -0.421875 C 2.960938 -0.265625 1.628906 -0.679688 0.703125 -1.671875 C -0.210938 -2.671875 -0.75 -4.03125 -0.90625 -5.75 C -1.0625 -7.476562 -0.882812 -9.367188 -0.375 -11.421875 C -0.0703125 -12.628906 0.257812 -13.9375 0.625 -15.34375 C 0.988281 -16.757812 1.394531 -18.300781 1.84375 -19.96875 C 1.15625 -19.90625 0.617188 -20.035156 0.234375 -20.359375 C -0.140625 -20.691406 -0.40625 -21.09375 -0.5625 -21.5625 C -0.71875 -22.03125 -0.753906 -22.445312 -0.671875 -22.8125 C -0.597656 -23.1875 -0.425781 -23.382812 -0.15625 -23.40625 C 1.207031 -23.53125 2.242188 -24.003906 2.953125 -24.828125 C 3.660156 -25.660156 4.132812 -26.507812 4.375 -27.375 C 4.8125 -28.78125 5.273438 -29.6875 5.765625 -30.09375 C 6.265625 -30.5 6.804688 -30.734375 7.390625 -30.796875 C 8.265625 -30.867188 8.84375 -30.550781 9.125 -29.84375 C 9.40625 -29.144531 9.253906 -28.03125 8.671875 -26.5 C 8.390625 -25.726562 8.25 -25.144531 8.25 -24.75 C 8.257812 -24.363281 8.484375 -24.191406 8.921875 -24.234375 L 11.328125 -24.453125 C 11.640625 -24.484375 11.863281 -24.28125 12 -23.84375 C 12.132812 -23.414062 12.171875 -22.914062 12.109375 -22.34375 C 12.046875 -21.78125 11.890625 -21.265625 11.640625 -20.796875 C 11.390625 -20.335938 11.035156 -20.085938 10.578125 -20.046875 C 9.140625 -19.921875 8.082031 -19.769531 7.40625 -19.59375 C 6.738281 -19.425781 6.285156 -19.113281 6.046875 -18.65625 C 5.804688 -18.195312 5.582031 -17.425781 5.375 -16.34375 C 5.019531 -14.6875 5.203125 -13.40625 5.921875 -12.5 C 6.640625 -11.59375 7.679688 -11.203125 9.046875 -11.328125 C 9.984375 -11.410156 10.796875 -11.695312 11.484375 -12.1875 C 12.171875 -12.675781 12.71875 -13.300781 13.125 -14.0625 C 13.34375 -14.445312 13.648438 -14.601562 14.046875 -14.53125 C 14.453125 -14.457031 14.800781 -14.273438 15.09375 -13.984375 C 15.382812 -13.703125 15.46875 -13.398438 15.34375 -13.078125 C 15.101562 -12.523438 14.789062 -11.757812 14.40625 -10.78125 C 14.03125 -9.8125 13.566406 -8.753906 13.015625 -7.609375 C 12.460938 -6.460938 11.789062 -5.367188 11 -4.328125 C 10.21875 -3.296875 9.304688 -2.414062 8.265625 -1.6875 C 7.222656 -0.96875 6.035156 -0.546875 4.703125 -0.421875 Z M 4.703125 -0.421875 "/></g></g></g><g fill="#9f4739" fill-opacity="1"><g transform="translate(48.357714, 60.610719)"><g><path d="M 4.3125 -3.90625 L 4.3125 0 L 3.8125 0 L 3.8125 -2.453125 L 2.40625 -0.46875 L 1.03125 -2.375 L 1.03125 0 L 0.546875 0 L 0.546875 -3.90625 L 2.40625 -1.265625 L 4.296875 -3.90625 Z M 4.3125 -3.90625 "/></g></g></g><g fill="#9f4739" fill-opacity="1"><g transform="translate(54.937291, 60.610719)"><g><path d="M 2.53125 -1 L 1.078125 -1 L 0.671875 0 L 0.171875 0 L 1.828125 -3.9375 L 1.859375 -3.9375 L 3.5 0 L 2.921875 0 Z M 2.359375 -1.4375 L 1.8125 -2.8125 L 1.25 -1.4375 Z M 2.359375 -1.4375 "/></g></g></g><g fill="#9f4739" fill-opacity="1"><g transform="translate(60.334267, 60.610719)"><g><path d="M 2.78125 -3.78125 L 2.78125 -3.296875 L 1.765625 -3.296875 L 1.765625 0 L 1.25 0 L 1.25 -3.296875 L 0.265625 -3.296875 L 0.265625 -3.78125 Z M 2.78125 -3.78125 "/></g></g></g><g fill="#9f4739" fill-opacity="1"><g transform="translate(65.10855, 60.610719)"><g><path d="M 3 -3.78125 L 3 -3.296875 L 1.046875 -3.296875 L 1.046875 -2.140625 L 2.796875 -2.140625 L 2.796875 -1.65625 L 1.046875 -1.65625 L 1.046875 -0.484375 L 3.078125 -0.484375 L 3.078125 0 L 0.546875 0 L 0.546875 -3.78125 Z M 3 -3.78125 "/></g></g></g><g fill="#9f4739" fill-opacity="1"><g transform="translate(70.254359, 60.610719)"><g/></g></g><g fill="#9f4739" fill-opacity="1"><g transform="translate(73.636735, 60.610719)"><g><path d="M 0.3125 -1.890625 C 0.3125 -2.234375 0.394531 -2.550781 0.5625 -2.84375 C 0.738281 -3.144531 0.972656 -3.382812 1.265625 -3.5625 C 1.566406 -3.738281 1.890625 -3.828125 2.234375 -3.828125 C 2.585938 -3.828125 2.910156 -3.738281 3.203125 -3.5625 C 3.492188 -3.382812 3.726562 -3.144531 3.90625 -2.84375 C 4.082031 -2.550781 4.171875 -2.234375 4.171875 -1.890625 C 4.171875 -1.535156 4.082031 -1.207031 3.90625 -0.90625 C 3.738281 -0.613281 3.503906 -0.378906 3.203125 -0.203125 C 2.910156 -0.0351562 2.585938 0.046875 2.234375 0.046875 C 1.890625 0.046875 1.566406 -0.0351562 1.265625 -0.203125 C 0.972656 -0.378906 0.738281 -0.613281 0.5625 -0.90625 C 0.394531 -1.207031 0.3125 -1.535156 0.3125 -1.890625 Z M 0.828125 -1.890625 C 0.828125 -1.628906 0.890625 -1.390625 1.015625 -1.171875 C 1.140625 -0.953125 1.3125 -0.773438 1.53125 -0.640625 C 1.75 -0.515625 1.988281 -0.453125 2.25 -0.453125 C 2.507812 -0.453125 2.742188 -0.515625 2.953125 -0.640625 C 3.171875 -0.765625 3.34375 -0.9375 3.46875 -1.15625 C 3.59375 -1.382812 3.65625 -1.628906 3.65625 -1.890625 C 3.65625 -2.148438 3.59375 -2.390625 3.46875 -2.609375 C 3.34375 -2.835938 3.171875 -3.015625 2.953125 -3.140625 C 2.734375 -3.273438 2.492188 -3.34375 2.234375 -3.34375 C 1.984375 -3.34375 1.75 -3.273438 1.53125 -3.140625 C 1.3125 -3.015625 1.140625 -2.835938 1.015625 -2.609375 C 0.890625 -2.390625 0.828125 -2.148438 0.828125 -1.890625 Z M 0.828125 -1.890625 "/></g></g></g><g fill="#9f4739" fill-opacity="1"><g transform="translate(79.850021, 60.610719)"><g><path d="M 2.796875 -3.78125 L 2.796875 -3.296875 L 1.046875 -3.296875 L 1.046875 -2.09375 L 2.578125 -2.09375 L 2.578125 -1.609375 L 1.046875 -1.609375 L 1.046875 0 L 0.546875 0 L 0.546875 -3.78125 Z M 2.796875 -3.78125 "/></g></g></g><g fill="#9f4739" fill-opacity="1"><g transform="translate(84.660935, 60.610719)"><g/></g></g><g fill="#9f4739" fill-opacity="1"><g transform="translate(88.043311, 60.610719)"><g><path d="M 3 -3.78125 L 3 -3.296875 L 1.046875 -3.296875 L 1.046875 -2.140625 L 2.796875 -2.140625 L 2.796875 -1.65625 L 1.046875 -1.65625 L 1.046875 -0.484375 L 3.078125 -0.484375 L 3.078125 0 L 0.546875 0 L 0.546875 -3.78125 Z M 3 -3.78125 "/></g></g></g><g fill="#9f4739" fill-opacity="1"><g transform="translate(93.18912, 60.610719)"><g><path d="M 2.53125 -1 L 1.078125 -1 L 0.671875 0 L 0.171875 0 L 1.828125 -3.9375 L 1.859375 -3.9375 L 3.5 0 L 2.921875 0 Z M 2.359375 -1.4375 L 1.8125 -2.8125 L 1.25 -1.4375 Z M 2.359375 -1.4375 "/></g></g></g><g fill="#9f4739" fill-opacity="1"><g transform="translate(98.586096, 60.610719)"><g><path d="M 2.78125 -3.78125 L 2.78125 -3.296875 L 1.765625 -3.296875 L 1.765625 0 L 1.25 0 L 1.25 -3.296875 L 0.265625 -3.296875 L 0.265625 -3.78125 Z M 2.78125 -3.78125 "/></g></g></g></svg>