<svg xmlns="http://www.w3.org/2000/svg" xmlns:xlink="http://www.w3.org/1999/xlink" width="500" zoomAndPan="magnify" viewBox="0 0 375 374.999991" height="500" preserveAspectRatio="xMidYMid meet" version="1.0"><defs><g/></defs><path stroke-linecap="butt" transform="matrix(1.671132, -0.151555, 0.151555, 1.671132, 43.084353, 97.889233)" fill="none" stroke-linejoin="miter" d="M 65.565813 32.390969 C 65.818641 32.000163 66.104193 31.86711 66.425209 31.987385 C 66.748333 32.110189 67.047664 32.340696 67.32552 32.679118 C 67.610543 33.015853 67.826859 33.362718 67.97447 33.719716 C 67.618619 34.292853 67.190532 35.121237 66.685363 36.206767 C 66.192837 37.281757 65.597267 38.436225 64.903288 39.670594 C 64.208042 40.89316 63.395813 42.06538 62.469129 43.185145 C 61.547081 44.30533 60.510335 45.221102 59.356573 45.932251 C 58.20281 46.643399 56.896589 46.999449 55.437912 47.000398 C 53.483734 47.000823 51.998982 46.30985 50.983445 44.929796 C 49.968749 43.540468 49.461243 41.63614 49.461138 39.214494 C 49.461859 37.685843 49.64869 36.19277 50.021631 34.735275 C 50.394572 33.277781 50.827178 31.909846 51.323875 30.634212 C 51.826051 29.349724 52.26419 28.230065 52.638294 27.275235 C 53.010921 26.310922 53.198125 25.561204 53.198007 25.021233 C 53.19868 24.240574 52.860113 23.849896 52.182095 23.851519 C 51.721792 23.849512 51.261749 24.076601 50.802388 24.528152 C 50.34155 24.970218 49.843695 25.768901 49.304187 26.923779 C 48.776481 28.07739 48.172163 29.714925 47.493973 31.831958 C 46.818942 33.939927 46.053212 36.687155 45.203738 40.074272 C 44.744048 41.921273 44.07514 43.111165 43.197225 43.641631 C 42.331111 44.17083 41.449344 44.434473 40.556349 44.4353 C 38.88965 44.436084 37.770024 44.152222 37.197053 43.588349 C 36.631878 43.015834 36.350119 42.179174 36.349668 41.075839 C 36.350506 40.087158 36.510237 38.996013 36.830757 37.80725 C 37.152118 36.609213 37.508874 35.35595 37.898919 34.04493 C 38.289804 32.724637 38.641067 31.403088 38.953336 30.073328 C 39.27551 28.737453 39.435201 27.466318 39.434728 26.260131 C 39.434925 25.22698 39.310216 24.540136 39.058072 24.201709 C 38.815201 23.864122 38.51504 23.694314 38.159697 23.694813 C 37.379037 23.69414 36.880274 24.193541 36.6613 25.190489 C 35.489455 30.946633 33.864233 35.593427 31.780575 39.13509 C 29.704714 42.66811 27.325779 45.23865 24.643982 46.84439 C 21.963025 48.440857 19.106752 49.238367 16.077271 49.239447 C 14.020242 49.239895 12.306869 48.801674 10.934834 47.924573 C 9.564276 47.056957 8.544368 45.931293 7.874691 44.552217 C 7.198899 43.163237 6.860528 41.739408 6.859578 40.28073 C 6.858419 38.824371 7.155499 37.430121 7.745763 36.102197 C 8.327384 34.766477 9.150592 33.679402 10.219392 32.848349 C 11.286924 32.005493 12.531167 31.585386 13.954859 31.583601 C 14.485345 31.584961 14.749053 31.795876 14.750199 32.221402 C 14.750667 33.401876 15.267029 34.357987 16.299496 35.087417 C 17.331963 35.816848 18.612627 36.180765 20.13896 36.181276 C 21.632624 36.181162 23.035582 35.815186 24.345094 35.087775 C 25.6643 34.356568 26.858477 33.405986 27.925306 32.235818 C 28.993186 31.054059 29.917303 29.756412 30.699973 28.343088 C 31.481376 26.917961 32.075624 25.494562 32.482716 24.072889 C 32.890018 22.648898 33.095021 21.367847 33.095195 20.231844 C 33.095729 18.808363 32.764176 17.72175 32.104963 16.974745 C 31.44554 16.230059 30.546773 15.856364 29.41077 15.856189 C 28.134611 15.854992 26.997657 16.329241 25.998012 17.27409 C 25.008271 18.212825 24.515795 19.51923 24.515738 21.195203 C 24.514252 22.113701 24.770497 22.896623 25.282786 23.536804 C 25.795496 24.172348 26.442391 24.488138 27.22305 24.488811 C 27.544194 25.200482 27.491692 26.062928 27.06765 27.078679 C 26.641291 28.094219 25.90361 28.985688 24.85271 29.74824 C 23.803918 30.513321 22.479155 30.893401 20.882639 30.893537 C 18.78114 30.894627 17.036503 30.130997 15.64873 28.602648 C 14.267912 27.07493 13.578285 25.065261 13.577533 22.573432 C 13.578568 20.551599 13.984707 18.624943 14.800587 16.793883 C 15.616467 14.962823 16.797218 13.33549 18.342842 11.911883 C 19.897949 10.486799 21.754933 9.367253 23.916323 8.551137 C 26.084667 7.735652 28.508121 7.328988 31.179941 7.328196 C 35.833969 7.327183 39.431317 8.642183 41.974301 11.273405 C 44.517496 13.902308 46.019939 17.439608 46.479312 21.885093 C 47.364739 20.034628 48.420472 18.239345 49.642297 16.494188 C 50.875713 14.750081 52.213498 13.195427 53.653122 11.832331 C 55.093376 10.462281 56.578794 9.367475 58.106635 8.55234 C 59.634687 7.734886 61.14428 7.327157 62.637945 7.327042 C 64.704248 7.327436 66.161782 7.880367 67.010967 8.981199 C 67.862261 10.084559 68.288908 11.359782 68.28838 12.808976 C 68.287348 13.877114 68.091569 14.92759 67.701042 15.960405 C 67.310516 16.99322 66.812252 17.847965 66.203931 18.52443 C 65.604885 19.201736 64.98511 19.540564 64.342288 19.540704 C 63.951958 19.540367 63.614719 19.444334 63.328043 19.254711 C 63.049373 19.054127 62.733421 18.955349 62.375759 18.955637 C 61.838107 18.955965 61.339305 19.275377 60.878932 19.918509 C 60.419399 20.552368 60.012809 21.37569 59.656423 22.392901 C 59.298769 23.398309 58.995297 24.476419 58.744318 25.620064 C 58.500926 26.757384 58.306629 27.843057 58.159111 28.876873 C 58.019599 29.899727 57.951072 30.732671 57.951211 31.375492 C 57.949344 32.478617 58.188121 33.376829 58.665224 34.069919 C 59.144436 34.765537 59.989453 35.11332 61.204913 35.113688 C 62.906599 35.113739 64.361075 34.205463 65.565813 32.390969 Z M 77.67736 47.63817 C 75.540874 47.638425 73.609791 47.229546 71.883901 46.413855 C 70.164966 45.598794 68.804871 44.38384 67.808251 42.769416 C 66.81711 41.146138 66.323072 39.144857 66.323819 36.765363 C 66.322208 34.205669 66.819113 31.948309 67.807369 29.99497 C 68.805739 28.033198 70.068903 26.425026 71.59728 25.165817 C 73.124179 23.897124 74.652435 23.051639 76.17994 22.626834 C 76.431784 22.556174 76.60016 22.452232 76.687385 22.315218 C 76.773343 22.166402 76.730942 21.989583 76.558283 21.779913 C 75.524642 20.496391 75.00664 18.785123 75.008494 16.651166 C 75.007062 14.914283 75.381032 13.342345 76.127875 11.937459 C 76.874928 10.530255 78.002468 9.412343 79.513444 8.576978 C 81.021891 7.743722 82.920127 7.329163 85.201616 7.328035 C 87.546124 7.327946 89.398591 7.727357 90.761336 8.526478 C 92.133565 9.324121 93.108979 10.347576 93.692007 11.599581 C 94.280722 12.840415 94.57564 14.099017 94.57676 15.375386 C 94.576577 17.439371 93.981158 19.288086 92.79282 20.921744 C 91.604692 22.553084 90.01436 23.851086 88.02667 24.813854 C 87.845009 24.883866 87.71141 24.990962 87.623133 25.139568 C 87.538016 25.279111 87.546477 25.41779 87.650834 25.555815 C 88.467118 26.555489 89.174062 27.75562 89.773351 29.163374 C 90.379806 30.569441 90.683258 32.300989 90.683705 34.358018 C 90.682998 36.917502 90.124978 39.204382 89.00501 41.218239 C 87.883354 43.224929 86.347878 44.79438 84.395634 45.933337 C 82.441282 47.069765 80.201858 47.638043 77.67736 47.63817 Z M 84.133917 21.936336 C 85.237252 21.935885 86.088028 21.627356 86.686034 21.013068 C 87.294366 20.388029 87.597252 19.522577 87.598909 18.421771 C 87.599106 17.38862 87.312295 16.581888 86.738688 15.999259 C 86.175194 15.408196 85.376767 15.113726 84.343615 15.113529 C 83.275267 15.114815 82.445988 15.418281 81.855567 16.026245 C 81.275472 16.623457 80.983121 17.475839 80.983782 18.576855 C 80.984058 20.816193 82.034736 21.937635 84.133917 21.936336 Z M 79.434198 34.735621 C 80.754828 34.736176 81.804755 34.345197 82.586298 33.562892 C 83.367631 32.782905 83.757521 31.731333 83.757867 30.413022 C 83.756768 29.239504 83.400377 28.2979 82.688693 27.588211 C 81.977219 26.876204 81.034828 26.51959 79.863839 26.518581 C 78.545317 26.520554 77.486116 26.910692 76.688344 27.691525 C 75.888254 28.472148 75.48909 29.522879 75.488744 30.841191 C 75.489843 32.014709 75.846234 32.956312 76.557708 33.668319 C 77.269182 34.380327 78.228012 34.736094 79.434198 34.735621 Z M 101.460778 46.999448 C 99.324292 46.999702 97.572341 46.52292 96.200289 45.568681 C 94.838562 44.603691 93.827054 43.333864 93.166395 41.752245 C 92.506367 40.163671 92.185419 38.418849 92.203553 36.517779 C 92.221476 34.619027 92.550482 32.718101 93.192889 30.815209 C 93.835087 28.914636 94.759528 27.175233 95.966425 25.594683 C 97.171633 24.006968 98.640362 22.735337 100.365656 21.779159 C 102.093899 20.816237 104.042492 20.33612 106.211857 20.334173 C 107.878346 20.335707 109.238456 20.648392 110.28755 21.271806 C 111.337275 21.888265 112.110948 22.713437 112.606251 23.747113 C 113.099446 24.77826 113.347751 25.880698 113.346531 27.054006 C 113.347021 28.337331 112.992378 29.618836 112.280704 30.893674 C 111.575986 32.169144 110.582266 33.229067 109.297439 34.070916 C 108.022726 34.904332 106.512291 35.321336 104.768453 35.322137 C 104.020461 35.322089 103.291216 35.269979 102.580718 35.165807 C 101.868742 35.05215 101.21217 34.817295 100.61332 34.461449 C 100.430989 34.358427 100.232872 34.352147 100.01602 34.449355 C 99.807174 34.535602 99.702896 34.757556 99.703395 35.112899 C 99.701698 36.033715 100.245825 36.735221 101.330719 37.221632 C 102.414135 37.69856 103.722382 37.938754 105.248925 37.936946 C 107.062736 37.937816 108.939254 37.479213 110.874052 36.558398 C 112.809691 35.628309 114.380192 34.239684 115.587874 32.392732 C 115.874416 31.965246 116.245744 31.81426 116.706916 31.935558 C 117.175043 32.057487 117.557837 32.295564 117.85277 32.651897 C 118.157186 33.006752 118.204263 33.363982 117.996741 33.71916 C 115.644326 38.059245 113.070806 41.357796 110.273864 43.614603 C 107.488514 45.872461 104.550959 46.999197 101.460778 46.999448 Z M 103.387308 31.323665 C 104.411186 31.323021 105.214747 30.993848 105.795882 30.333618 C 106.386292 29.674228 106.68058 29.006683 106.681275 28.328875 C 106.681777 27.730524 106.478071 27.21884 106.070155 26.793824 C 105.660763 26.359323 105.049297 26.142583 104.233651 26.141074 C 103.2005 26.140878 102.381131 26.463942 101.773646 27.10542 C 101.173116 27.74753 100.875668 28.424138 100.874137 29.136932 C 100.874471 29.700297 101.078388 30.209663 101.486309 30.660392 C 101.895071 31.101848 102.527191 31.322799 103.387308 31.323665 Z M 120.015772 46.999205 C 118.201751 47.000653 116.831851 46.254646 115.901437 44.760762 C 114.982615 43.26793 114.522313 41.332821 114.52306 38.953327 C 114.521258 37.452497 114.707857 35.858891 115.082645 34.174827 C 115.455746 32.483598 116.006314 30.820151 116.736247 29.189333 C 117.464071 27.555986 118.381613 26.073082 119.482339 24.735352 C 120.585172 23.40015 121.864893 22.331102 123.323397 21.533054 C 124.781902 20.735005 126.435658 20.335675 128.284666 20.335061 C 129.352804 20.336094 130.176058 20.434129 130.758646 20.634226 C 131.349029 20.825679 131.794841 21.064796 132.09861 21.349468 C 132.402169 21.636459 132.658296 21.879411 132.866783 22.080643 C 133.083276 22.270913 133.371408 22.367168 133.726751 22.366669 C 134.325102 22.367171 134.812766 22.196349 135.184686 21.858417 C 135.558925 21.520697 135.975315 21.182124 136.433857 20.842698 C 136.903992 20.504324 137.545723 20.335786 138.36158 20.334977 C 139.074585 20.334189 139.563378 20.511755 139.832598 20.868093 C 140.101817 21.224432 140.235756 21.706414 140.236731 22.314249 C 140.235892 23.302929 139.959588 24.287666 139.402971 25.270356 C 138.856048 26.24925 138.280103 27.522372 137.670922 29.084667 C 136.785518 31.037984 136.456212 32.529823 136.682794 33.562503 C 136.916331 34.595815 137.619754 35.11308 138.790954 35.111772 C 139.71177 35.113468 140.509449 34.874924 141.18631 34.396349 C 141.863801 33.910818 142.471491 33.241308 143.008958 32.392456 C 143.288335 31.966658 143.648071 31.814621 144.090485 31.936555 C 144.542383 32.057012 144.915694 32.296567 145.210626 32.6529 C 145.515042 33.007755 145.578559 33.364139 145.406023 33.720152 C 144.762839 34.961464 144.07669 36.341467 143.347576 37.86016 C 142.619303 39.369579 141.807556 40.820004 140.914863 42.209325 C 140.027648 43.589793 139.016876 44.734657 137.880017 45.646025 C 136.744 46.548119 135.429159 46.999223 133.935495 46.999338 C 132.086487 46.999951 130.779816 46.252665 130.015271 44.759799 C 129.253044 43.267143 129.030289 41.419027 129.351852 39.213552 L 129.143831 39.213387 C 128.075112 41.383827 126.755936 43.223005 125.185884 44.735558 C 123.623207 46.244106 121.899766 46.999427 120.015772 46.999205 Z M 125.355323 35.959636 C 126.274031 35.958804 127.081188 35.69307 127.776585 35.164751 C 128.470505 34.626948 129.013495 33.974946 129.405344 33.211062 C 129.794876 32.446968 129.989455 31.693243 129.989503 30.945252 C 129.990154 30.061741 129.737301 29.370288 129.23516 28.875952 C 128.740816 28.372972 128.067168 28.120206 127.216325 28.12018 C 126.297617 28.121012 125.498676 28.373467 124.822031 28.875437 C 124.143699 29.370241 123.61904 30.000531 123.245948 30.763778 C 122.872856 31.527026 122.685869 32.300138 122.685196 33.080798 C 122.686653 33.966838 122.924334 34.670939 123.400767 35.190994 C 123.887315 35.702616 124.539677 35.958128 125.355323 35.959636 Z M 147.167925 47.000252 C 145.169487 46.999001 143.698452 46.388746 142.752922 45.16464 C 141.815188 43.931891 141.348004 42.330418 141.346732 40.359802 C 141.347778 38.389395 141.736593 36.267156 142.517811 33.993505 C 142.986671 32.638209 143.504615 31.179839 144.067008 29.617977 C 144.641833 28.047891 145.262153 26.337008 145.930074 24.487855 C 145.149205 24.4895 144.555445 24.283715 144.145848 23.877246 C 143.738779 23.468669 143.468901 22.990721 143.338532 22.443613 C 143.218277 21.888073 143.21754 21.406484 143.338639 20.999056 C 143.469222 20.590151 143.695746 20.386296 144.015892 20.38728 C 145.577422 20.386308 146.80185 19.952716 147.687068 19.083977 C 148.582192 18.209123 149.207532 17.293441 149.563088 16.336929 C 150.204938 14.77526 150.824783 13.791292 151.425153 13.382917 C 152.031001 12.965688 152.673988 12.757527 153.351796 12.758223 C 154.349961 12.757584 154.970955 13.17855 155.21246 14.02091 C 155.46429 14.852519 155.182563 16.103237 154.367491 17.770746 C 153.976294 18.630526 153.758509 19.279296 153.716031 19.721904 C 153.680509 20.165142 153.915134 20.387444 154.420118 20.386492 L 157.19226 20.387785 C 157.547604 20.387286 157.777177 20.639518 157.88351 21.142371 C 157.985837 21.637848 157.978795 22.205219 157.857326 22.848699 C 157.734589 23.480377 157.505195 24.050957 157.167454 24.553275 C 156.828025 25.048427 156.389485 25.296167 155.851833 25.296494 C 154.220331 25.295795 153.012894 25.361605 152.232052 25.491814 C 151.449733 25.61254 150.898238 25.920161 150.577567 26.414676 C 150.256896 26.909192 149.917546 27.764324 149.561835 28.980282 C 148.98981 30.828782 149.068744 32.303883 149.796111 33.407692 C 150.526847 34.500119 151.676247 35.04848 153.24705 35.048349 C 154.315398 35.047063 155.265036 34.808274 156.098282 34.332194 C 156.931739 33.853796 157.614464 33.207454 158.142032 32.390428 C 158.428364 31.965261 158.792737 31.813644 159.23747 31.935789 C 159.68684 32.058354 160.06036 32.29559 160.355293 32.651923 C 160.659709 33.006779 160.725544 33.363372 160.55069 33.719175 C 160.231308 34.328344 159.800062 35.165792 159.261589 36.23194 C 158.733019 37.291973 158.095507 38.444975 157.348631 39.695584 C 156.602595 40.936919 155.729666 42.108309 154.731952 43.212282 C 153.741404 44.314568 152.61445 45.219821 151.346033 45.93226 C 150.087101 46.64322 148.694258 47.000763 147.167925 47.000252 Z M 147.167925 47.000252 " stroke="#d26767" stroke-width="3.999998" stroke-opacity="1" stroke-miterlimit="4"/><g fill="#ecb0b6" fill-opacity="1"><g transform="translate(65.587056, 175.037677)"><g><path d="M 91.96875 -32.96875 C 92.34375 -33.644531 92.804688 -33.90625 93.359375 -33.75 C 93.910156 -33.59375 94.445312 -33.253906 94.96875 -32.734375 C 95.488281 -32.210938 95.894531 -31.664062 96.1875 -31.09375 C 95.6875 -30.09375 95.101562 -28.644531 94.4375 -26.75 C 93.769531 -24.863281 92.945312 -22.84375 91.96875 -20.6875 C 91 -18.539062 89.820312 -16.457031 88.4375 -14.4375 C 87.0625 -12.425781 85.460938 -10.738281 83.640625 -9.375 C 81.828125 -8.019531 79.703125 -7.226562 77.265625 -7 C 73.992188 -6.707031 71.40625 -7.644531 69.5 -9.8125 C 67.601562 -11.976562 66.46875 -15.082031 66.09375 -19.125 C 65.863281 -21.675781 65.953125 -24.195312 66.359375 -26.6875 C 66.765625 -29.175781 67.285156 -31.523438 67.921875 -33.734375 C 68.566406 -35.953125 69.128906 -37.894531 69.609375 -39.5625 C 70.085938 -41.226562 70.285156 -42.503906 70.203125 -43.390625 C 70.078125 -44.703125 69.445312 -45.304688 68.3125 -45.203125 C 67.539062 -45.128906 66.800781 -44.679688 66.09375 -43.859375 C 65.394531 -43.046875 64.6875 -41.632812 63.96875 -39.625 C 63.257812 -37.613281 62.5 -34.789062 61.6875 -31.15625 C 60.882812 -27.53125 60.023438 -22.828125 59.109375 -17.046875 C 58.609375 -13.878906 57.671875 -11.785156 56.296875 -10.765625 C 54.929688 -9.742188 53.5 -9.164062 52 -9.03125 C 49.207031 -8.78125 47.296875 -9.082031 46.265625 -9.9375 C 45.234375 -10.800781 44.632812 -12.15625 44.46875 -14 C 44.3125 -15.664062 44.410156 -17.519531 44.765625 -19.5625 C 45.117188 -21.601562 45.519531 -23.75 45.96875 -26 C 46.425781 -28.257812 46.820312 -30.523438 47.15625 -32.796875 C 47.488281 -35.078125 47.566406 -37.226562 47.390625 -39.25 C 47.234375 -40.96875 46.921875 -42.09375 46.453125 -42.625 C 45.984375 -43.15625 45.453125 -43.394531 44.859375 -43.34375 C 43.554688 -43.226562 42.796875 -42.3125 42.578125 -40.59375 C 41.492188 -30.800781 39.476562 -22.789062 36.53125 -16.5625 C 33.59375 -10.34375 30.003906 -5.691406 25.765625 -2.609375 C 21.535156 0.472656 16.894531 2.242188 11.84375 2.703125 C 8.394531 3.015625 5.457031 2.546875 3.03125 1.296875 C 0.613281 0.046875 -1.257812 -1.679688 -2.59375 -3.890625 C -3.9375 -6.109375 -4.71875 -8.4375 -4.9375 -10.875 C -5.15625 -13.300781 -4.875 -15.671875 -4.09375 -17.984375 C -3.320312 -20.304688 -2.101562 -22.242188 -0.4375 -23.796875 C 1.21875 -25.359375 3.234375 -26.25 5.609375 -26.46875 C 6.503906 -26.550781 6.984375 -26.238281 7.046875 -25.53125 C 7.222656 -23.5625 8.222656 -22.046875 10.046875 -20.984375 C 11.878906 -19.929688 14.070312 -19.519531 16.625 -19.75 C 19.125 -19.976562 21.414062 -20.796875 23.5 -22.203125 C 25.582031 -23.617188 27.425781 -25.390625 29.03125 -27.515625 C 30.644531 -29.640625 31.992188 -31.953125 33.078125 -34.453125 C 34.171875 -36.953125 34.953125 -39.421875 35.421875 -41.859375 C 35.898438 -44.296875 36.050781 -46.460938 35.875 -48.359375 C 35.664062 -50.734375 34.953125 -52.492188 33.734375 -53.640625 C 32.515625 -54.796875 30.957031 -55.285156 29.0625 -55.109375 C 26.914062 -54.910156 25.082031 -53.945312 23.5625 -52.21875 C 22.039062 -50.5 21.410156 -48.242188 21.671875 -45.453125 C 21.804688 -43.898438 22.351562 -42.628906 23.3125 -41.640625 C 24.28125 -40.648438 25.414062 -40.21875 26.71875 -40.34375 C 27.351562 -39.195312 27.390625 -37.742188 26.828125 -35.984375 C 26.273438 -34.234375 25.179688 -32.640625 23.546875 -31.203125 C 21.910156 -29.773438 19.753906 -28.9375 17.078125 -28.6875 C 13.566406 -28.375 10.535156 -29.382812 7.984375 -31.71875 C 5.441406 -34.0625 3.984375 -37.3125 3.609375 -41.46875 C 3.304688 -44.851562 3.695312 -48.140625 4.78125 -51.328125 C 5.863281 -54.515625 7.585938 -57.410156 9.953125 -60.015625 C 12.328125 -62.628906 15.265625 -64.785156 18.765625 -66.484375 C 22.265625 -68.179688 26.242188 -69.234375 30.703125 -69.640625 C 38.484375 -70.347656 44.695312 -68.691406 49.34375 -64.671875 C 54 -60.660156 57.046875 -54.976562 58.484375 -47.625 C 59.691406 -50.84375 61.1875 -54 62.96875 -57.09375 C 64.757812 -60.1875 66.753906 -62.988281 68.953125 -65.5 C 71.148438 -68.007812 73.460938 -70.066406 75.890625 -71.671875 C 78.328125 -73.273438 80.789062 -74.1875 83.28125 -74.40625 C 86.726562 -74.71875 89.25 -74.015625 90.84375 -72.296875 C 92.4375 -70.585938 93.34375 -68.515625 93.5625 -66.078125 C 93.726562 -64.296875 93.5625 -62.515625 93.0625 -60.734375 C 92.570312 -58.953125 91.867188 -57.445312 90.953125 -56.21875 C 90.046875 -55 89.0625 -54.34375 88 -54.25 C 87.34375 -54.1875 86.757812 -54.296875 86.25 -54.578125 C 85.738281 -54.867188 85.191406 -54.988281 84.609375 -54.9375 C 83.710938 -54.851562 82.925781 -54.238281 82.25 -53.09375 C 81.582031 -51.957031 81.023438 -50.515625 80.578125 -48.765625 C 80.128906 -47.023438 79.78125 -45.179688 79.53125 -43.234375 C 79.289062 -41.296875 79.128906 -39.457031 79.046875 -37.71875 C 78.972656 -35.976562 78.984375 -34.570312 79.078125 -33.5 C 79.253906 -31.65625 79.796875 -30.191406 80.703125 -29.109375 C 81.609375 -28.023438 83.070312 -27.570312 85.09375 -27.75 C 87.945312 -28.007812 90.238281 -29.75 91.96875 -32.96875 Z M 91.96875 -32.96875 "/></g></g></g><g fill="#ecb0b6" fill-opacity="1"><g transform="translate(157.735281, 166.680779)"><g><path d="M 22.375 -0.9375 C 18.8125 -0.613281 15.523438 -1.003906 12.515625 -2.109375 C 9.515625 -3.222656 7.054688 -5.054688 5.140625 -7.609375 C 3.234375 -10.160156 2.101562 -13.429688 1.75 -17.421875 C 1.351562 -21.691406 1.84375 -25.535156 3.21875 -28.953125 C 4.59375 -32.367188 6.457031 -35.25 8.8125 -37.59375 C 11.175781 -39.945312 13.601562 -41.585938 16.09375 -42.515625 C 16.5 -42.671875 16.765625 -42.875 16.890625 -43.125 C 17.015625 -43.382812 16.910156 -43.675781 16.578125 -44 C 14.660156 -45.976562 13.539062 -48.753906 13.21875 -52.328125 C 12.945312 -55.234375 13.328125 -57.914062 14.359375 -60.375 C 15.398438 -62.84375 17.117188 -64.890625 19.515625 -66.515625 C 21.921875 -68.140625 25.023438 -69.125 28.828125 -69.46875 C 32.742188 -69.820312 35.90625 -69.429688 38.3125 -68.296875 C 40.71875 -67.171875 42.507812 -65.609375 43.6875 -63.609375 C 44.863281 -61.617188 45.546875 -59.554688 45.734375 -57.421875 C 46.046875 -53.972656 45.332031 -50.796875 43.59375 -47.890625 C 41.851562 -44.984375 39.394531 -42.570312 36.21875 -40.65625 C 35.925781 -40.507812 35.71875 -40.3125 35.59375 -40.0625 C 35.46875 -39.8125 35.503906 -39.578125 35.703125 -39.359375 C 37.210938 -37.816406 38.578125 -35.914062 39.796875 -33.65625 C 41.015625 -31.40625 41.78125 -28.554688 42.09375 -25.109375 C 42.488281 -20.835938 41.898438 -16.9375 40.328125 -13.40625 C 38.765625 -9.882812 36.429688 -7.019531 33.328125 -4.8125 C 30.234375 -2.613281 26.582031 -1.320312 22.375 -0.9375 Z M 29.265625 -44.890625 C 31.109375 -45.054688 32.488281 -45.703125 33.40625 -46.828125 C 34.320312 -47.960938 34.695312 -49.453125 34.53125 -51.296875 C 34.375 -53.023438 33.773438 -54.332031 32.734375 -55.21875 C 31.703125 -56.113281 30.320312 -56.484375 28.59375 -56.328125 C 26.8125 -56.160156 25.472656 -55.523438 24.578125 -54.421875 C 23.691406 -53.328125 23.332031 -51.859375 23.5 -50.015625 C 23.84375 -46.273438 25.765625 -44.566406 29.265625 -44.890625 Z M 23.359375 -22.78125 C 25.566406 -22.988281 27.257812 -23.800781 28.4375 -25.21875 C 29.625 -26.644531 30.117188 -28.457031 29.921875 -30.65625 C 29.742188 -32.613281 29.003906 -34.132812 27.703125 -35.21875 C 26.410156 -36.300781 24.785156 -36.753906 22.828125 -36.578125 C 20.628906 -36.367188 18.921875 -35.550781 17.703125 -34.125 C 16.484375 -32.695312 15.972656 -30.882812 16.171875 -28.6875 C 16.347656 -26.726562 17.082031 -25.207031 18.375 -24.125 C 19.675781 -23.050781 21.335938 -22.601562 23.359375 -22.78125 Z M 23.359375 -22.78125 "/></g></g></g><g fill="#ecb0b6" fill-opacity="1"><g transform="translate(203.00732, 162.57507)"><g><path d="M 16.765625 -1.515625 C 13.191406 -1.191406 10.1875 -1.726562 7.75 -3.125 C 5.320312 -4.519531 3.4375 -6.488281 2.09375 -9.03125 C 0.757812 -11.582031 -0.03125 -14.445312 -0.28125 -17.625 C -0.539062 -20.8125 -0.285156 -24.039062 0.484375 -27.3125 C 1.265625 -30.59375 2.546875 -33.644531 4.328125 -36.46875 C 6.109375 -39.300781 8.363281 -41.648438 11.09375 -43.515625 C 13.832031 -45.378906 17.015625 -46.472656 20.640625 -46.796875 C 23.429688 -47.054688 25.75 -46.742188 27.59375 -45.859375 C 29.4375 -44.972656 30.851562 -43.707031 31.84375 -42.0625 C 32.832031 -40.414062 33.421875 -38.613281 33.609375 -36.65625 C 33.796875 -34.519531 33.390625 -32.328125 32.390625 -30.078125 C 31.398438 -27.828125 29.898438 -25.90625 27.890625 -24.3125 C 25.878906 -22.726562 23.421875 -21.800781 20.515625 -21.53125 C 19.265625 -21.414062 18.035156 -21.394531 16.828125 -21.46875 C 15.628906 -21.550781 14.492188 -21.835938 13.421875 -22.328125 C 13.109375 -22.472656 12.78125 -22.457031 12.4375 -22.28125 C 12.101562 -22.101562 11.960938 -21.71875 12.015625 -21.125 C 12.148438 -19.570312 13.160156 -18.476562 15.046875 -17.84375 C 16.929688 -17.21875 19.148438 -17.019531 21.703125 -17.25 C 24.734375 -17.519531 27.796875 -18.570312 30.890625 -20.40625 C 33.992188 -22.25 36.410156 -24.804688 38.140625 -28.078125 C 38.554688 -28.828125 39.160156 -29.132812 39.953125 -29 C 40.753906 -28.863281 41.429688 -28.519531 41.984375 -27.96875 C 42.535156 -27.425781 42.660156 -26.84375 42.359375 -26.21875 C 39.097656 -18.601562 35.304688 -12.695312 30.984375 -8.5 C 26.671875 -4.3125 21.929688 -1.984375 16.765625 -1.515625 Z M 17.59375 -28.015625 C 19.3125 -28.171875 20.609375 -28.84375 21.484375 -30.03125 C 22.367188 -31.21875 22.757812 -32.375 22.65625 -33.5 C 22.5625 -34.507812 22.140625 -35.335938 21.390625 -35.984375 C 20.648438 -36.640625 19.59375 -36.90625 18.21875 -36.78125 C 16.5 -36.625 15.179688 -35.96875 14.265625 -34.8125 C 13.359375 -33.65625 12.960938 -32.484375 13.078125 -31.296875 C 13.160156 -30.347656 13.570312 -29.53125 14.3125 -28.84375 C 15.0625 -28.15625 16.15625 -27.878906 17.59375 -28.015625 Z M 17.59375 -28.015625 "/></g></g></g><g fill="#ecb0b6" fill-opacity="1"><g transform="translate(241.328157, 159.099763)"><g><path d="M 9.453125 -0.859375 C 6.421875 -0.578125 4.019531 -1.613281 2.25 -3.96875 C 0.476562 -6.332031 -0.585938 -9.503906 -0.953125 -13.484375 C -1.179688 -15.972656 -1.113281 -18.65625 -0.75 -21.53125 C -0.382812 -24.40625 0.28125 -27.265625 1.25 -30.109375 C 2.21875 -32.960938 3.523438 -35.585938 5.171875 -37.984375 C 6.816406 -40.378906 8.796875 -42.351562 11.109375 -43.90625 C 13.421875 -45.46875 16.125 -46.390625 19.21875 -46.671875 C 21 -46.835938 22.394531 -46.800781 23.40625 -46.5625 C 24.414062 -46.332031 25.191406 -46 25.734375 -45.5625 C 26.285156 -45.125 26.753906 -44.757812 27.140625 -44.46875 C 27.535156 -44.175781 28.023438 -44.054688 28.609375 -44.109375 C 29.617188 -44.203125 30.410156 -44.554688 30.984375 -45.171875 C 31.566406 -45.796875 32.210938 -46.425781 32.921875 -47.0625 C 33.640625 -47.695312 34.679688 -48.078125 36.046875 -48.203125 C 37.242188 -48.304688 38.09375 -48.082031 38.59375 -47.53125 C 39.101562 -46.976562 39.398438 -46.195312 39.484375 -45.1875 C 39.640625 -43.519531 39.328125 -41.828125 38.546875 -40.109375 C 37.765625 -38.390625 36.992188 -36.175781 36.234375 -33.46875 C 35.046875 -30.0625 34.722656 -27.515625 35.265625 -25.828125 C 35.804688 -24.148438 37.054688 -23.398438 39.015625 -23.578125 C 40.566406 -23.710938 41.867188 -24.234375 42.921875 -25.140625 C 43.972656 -26.046875 44.875 -27.253906 45.625 -28.765625 C 46.039062 -29.515625 46.628906 -29.816406 47.390625 -29.671875 C 48.160156 -29.535156 48.820312 -29.191406 49.375 -28.640625 C 49.9375 -28.097656 50.09375 -27.515625 49.84375 -26.890625 C 48.96875 -24.722656 48.035156 -22.316406 47.046875 -19.671875 C 46.054688 -17.035156 44.925781 -14.492188 43.65625 -12.046875 C 42.382812 -9.597656 40.863281 -7.53125 39.09375 -5.84375 C 37.320312 -4.15625 35.191406 -3.195312 32.703125 -2.96875 C 29.617188 -2.6875 27.328125 -3.734375 25.828125 -6.109375 C 24.328125 -8.492188 23.664062 -11.550781 23.84375 -15.28125 L 23.5 -15.25 C 22.050781 -11.46875 20.132812 -8.191406 17.75 -5.421875 C 15.363281 -2.660156 12.597656 -1.140625 9.453125 -0.859375 Z M 16.6875 -20.109375 C 18.238281 -20.242188 19.550781 -20.804688 20.625 -21.796875 C 21.695312 -22.796875 22.5 -23.96875 23.03125 -25.3125 C 23.570312 -26.65625 23.785156 -27.953125 23.671875 -29.203125 C 23.535156 -30.679688 23.015625 -31.796875 22.109375 -32.546875 C 21.210938 -33.304688 20.046875 -33.625 18.609375 -33.5 C 17.066406 -33.351562 15.769531 -32.8125 14.71875 -31.875 C 13.664062 -30.945312 12.882812 -29.816406 12.375 -28.484375 C 11.863281 -27.148438 11.664062 -25.832031 11.78125 -24.53125 C 11.914062 -23.039062 12.425781 -21.898438 13.3125 -21.109375 C 14.195312 -20.316406 15.320312 -19.984375 16.6875 -20.109375 Z M 16.6875 -20.109375 "/></g></g></g><g fill="#ecb0b6" fill-opacity="1"><g transform="translate(287.13492, 154.94556)"><g><path d="M 9 -0.8125 C 5.675781 -0.507812 3.128906 -1.3125 1.359375 -3.21875 C -0.398438 -5.125 -1.425781 -7.726562 -1.71875 -11.03125 C -2.019531 -14.332031 -1.6875 -17.9375 -0.71875 -21.84375 C -0.15625 -24.175781 0.484375 -26.691406 1.203125 -29.390625 C 1.921875 -32.097656 2.703125 -35.046875 3.546875 -38.234375 C 2.242188 -38.117188 1.21875 -38.375 0.46875 -39 C -0.28125 -39.625 -0.800781 -40.382812 -1.09375 -41.28125 C -1.382812 -42.175781 -1.457031 -42.972656 -1.3125 -43.671875 C -1.164062 -44.378906 -0.820312 -44.757812 -0.28125 -44.8125 C 2.332031 -45.050781 4.316406 -45.960938 5.671875 -47.546875 C 7.023438 -49.128906 7.925781 -50.757812 8.375 -52.4375 C 9.195312 -55.144531 10.082031 -56.882812 11.03125 -57.65625 C 11.976562 -58.425781 13.019531 -58.863281 14.15625 -58.96875 C 15.8125 -59.125 16.910156 -58.519531 17.453125 -57.15625 C 17.992188 -55.800781 17.710938 -53.660156 16.609375 -50.734375 C 16.085938 -49.253906 15.828125 -48.140625 15.828125 -47.390625 C 15.835938 -46.640625 16.253906 -46.304688 17.078125 -46.390625 L 21.71875 -46.796875 C 22.3125 -46.859375 22.734375 -46.476562 22.984375 -45.65625 C 23.242188 -44.84375 23.316406 -43.890625 23.203125 -42.796875 C 23.097656 -41.710938 22.796875 -40.726562 22.296875 -39.84375 C 21.804688 -38.957031 21.117188 -38.476562 20.234375 -38.40625 C 17.492188 -38.15625 15.476562 -37.867188 14.1875 -37.546875 C 12.90625 -37.222656 12.035156 -36.617188 11.578125 -35.734375 C 11.117188 -34.847656 10.6875 -33.375 10.28125 -31.3125 C 9.613281 -28.125 9.96875 -25.664062 11.34375 -23.9375 C 12.726562 -22.207031 14.726562 -21.460938 17.34375 -21.703125 C 19.125 -21.867188 20.675781 -22.410156 22 -23.328125 C 23.320312 -24.253906 24.367188 -25.445312 25.140625 -26.90625 C 25.554688 -27.65625 26.144531 -27.957031 26.90625 -27.8125 C 27.664062 -27.675781 28.328125 -27.332031 28.890625 -26.78125 C 29.453125 -26.238281 29.609375 -25.65625 29.359375 -25.03125 C 28.910156 -23.976562 28.320312 -22.519531 27.59375 -20.65625 C 26.875 -18.789062 25.984375 -16.757812 24.921875 -14.5625 C 23.859375 -12.375 22.578125 -10.28125 21.078125 -8.28125 C 19.578125 -6.289062 17.828125 -4.609375 15.828125 -3.234375 C 13.835938 -1.859375 11.5625 -1.050781 9 -0.8125 Z M 9 -0.8125 "/></g></g></g><g fill="#9f4739" fill-opacity="1"><g transform="translate(136.486183, 191.384445)"><g><path d="M 8.25 -7.484375 L 8.25 0 L 7.296875 0 L 7.296875 -4.6875 L 4.625 -0.90625 L 4.609375 -0.90625 L 1.984375 -4.5625 L 1.984375 0 L 1.046875 0 L 1.046875 -7.484375 L 4.625 -2.421875 Z M 8.25 -7.484375 "/></g></g></g><g fill="#9f4739" fill-opacity="1"><g transform="translate(149.084554, 191.384445)"><g><path d="M 4.84375 -1.90625 L 2.0625 -1.90625 L 1.28125 0 L 0.328125 0 L 3.484375 -7.546875 L 3.546875 -7.546875 L 6.71875 0 L 5.59375 0 Z M 4.515625 -2.75 L 3.484375 -5.390625 L 2.40625 -2.75 Z M 4.515625 -2.75 "/></g></g></g><g fill="#9f4739" fill-opacity="1"><g transform="translate(159.418516, 191.384445)"><g><path d="M 5.328125 -7.25 L 5.328125 -6.3125 L 3.375 -6.3125 L 3.375 0 L 2.40625 0 L 2.40625 -6.3125 L 0.515625 -6.3125 L 0.515625 -7.25 Z M 5.328125 -7.25 "/></g></g></g><g fill="#9f4739" fill-opacity="1"><g transform="translate(168.560165, 191.384445)"><g><path d="M 5.765625 -7.25 L 5.765625 -6.3125 L 2.015625 -6.3125 L 2.015625 -4.109375 L 5.359375 -4.109375 L 5.359375 -3.1875 L 2.015625 -3.1875 L 2.015625 -0.9375 L 5.890625 -0.9375 L 5.890625 0 L 1.046875 0 L 1.046875 -7.25 Z M 5.765625 -7.25 "/></g></g></g><g fill="#9f4739" fill-opacity="1"><g transform="translate(178.413201, 191.384445)"><g/></g></g><g fill="#9f4739" fill-opacity="1"><g transform="translate(184.88967, 191.384445)"><g><path d="M 0.59375 -3.625 C 0.59375 -4.28125 0.757812 -4.890625 1.09375 -5.453125 C 1.425781 -6.023438 1.875 -6.476562 2.4375 -6.8125 C 3.007812 -7.15625 3.628906 -7.328125 4.296875 -7.328125 C 4.953125 -7.328125 5.5625 -7.15625 6.125 -6.8125 C 6.695312 -6.476562 7.148438 -6.023438 7.484375 -5.453125 C 7.828125 -4.890625 8 -4.28125 8 -3.625 C 8 -2.957031 7.832031 -2.335938 7.5 -1.765625 C 7.164062 -1.191406 6.710938 -0.738281 6.140625 -0.40625 C 5.566406 -0.0820312 4.953125 0.078125 4.296875 0.078125 C 3.628906 0.078125 3.007812 -0.0820312 2.4375 -0.40625 C 1.863281 -0.738281 1.410156 -1.1875 1.078125 -1.75 C 0.753906 -2.3125 0.59375 -2.9375 0.59375 -3.625 Z M 1.59375 -3.609375 C 1.59375 -3.117188 1.710938 -2.660156 1.953125 -2.234375 C 2.191406 -1.816406 2.519531 -1.484375 2.9375 -1.234375 C 3.363281 -0.984375 3.820312 -0.859375 4.3125 -0.859375 C 4.8125 -0.859375 5.265625 -0.976562 5.671875 -1.21875 C 6.085938 -1.46875 6.410156 -1.804688 6.640625 -2.234375 C 6.878906 -2.660156 7 -3.125 7 -3.625 C 7 -4.125 6.878906 -4.585938 6.640625 -5.015625 C 6.398438 -5.441406 6.070312 -5.78125 5.65625 -6.03125 C 5.238281 -6.28125 4.785156 -6.40625 4.296875 -6.40625 C 3.796875 -6.40625 3.335938 -6.273438 2.921875 -6.015625 C 2.515625 -5.765625 2.191406 -5.425781 1.953125 -5 C 1.710938 -4.570312 1.59375 -4.109375 1.59375 -3.609375 Z M 1.59375 -3.609375 "/></g></g></g><g fill="#9f4739" fill-opacity="1"><g transform="translate(196.786678, 191.384445)"><g><path d="M 5.34375 -7.25 L 5.34375 -6.3125 L 2.015625 -6.3125 L 2.015625 -4.015625 L 4.9375 -4.015625 L 4.9375 -3.078125 L 2.015625 -3.078125 L 2.015625 0 L 1.046875 0 L 1.046875 -7.25 Z M 5.34375 -7.25 "/></g></g></g><g fill="#9f4739" fill-opacity="1"><g transform="translate(212.474936, 191.384445)"><g><path d="M 5.765625 -7.25 L 5.765625 -6.3125 L 2.015625 -6.3125 L 2.015625 -4.109375 L 5.359375 -4.109375 L 5.359375 -3.1875 L 2.015625 -3.1875 L 2.015625 -0.9375 L 5.890625 -0.9375 L 5.890625 0 L 1.046875 0 L 1.046875 -7.25 Z M 5.765625 -7.25 "/></g></g></g><g fill="#9f4739" fill-opacity="1"><g transform="translate(222.327972, 191.384445)"><g><path d="M 4.84375 -1.90625 L 2.0625 -1.90625 L 1.28125 0 L 0.328125 0 L 3.484375 -7.546875 L 3.546875 -7.546875 L 6.71875 0 L 5.59375 0 Z M 4.515625 -2.75 L 3.484375 -5.390625 L 2.40625 -2.75 Z M 4.515625 -2.75 "/></g></g></g><g fill="#9f4739" fill-opacity="1"><g transform="translate(232.661935, 191.384445)"><g><path d="M 5.328125 -7.25 L 5.328125 -6.3125 L 3.375 -6.3125 L 3.375 0 L 2.40625 0 L 2.40625 -6.3125 L 0.515625 -6.3125 L 0.515625 -7.25 Z M 5.328125 -7.25 "/></g></g></g></svg>